<svg width="94" height="141" viewBox="0 0 94 141" fill="none" xmlns="http://www.w3.org/2000/svg">
<path d="M91.5677 8.38391C78.7941 5.41627 71.0298 11.9834 67.2101 16.8622C65.5862 16.078 63.8727 15.6166 62.1345 15.4978H62.1207C57.6918 6.79805 50.1986 1.27347 41.9647 0.640442C35.2779 0.128346 30.1607 1.69806 26.7487 5.31379C25.9469 6.12229 25.361 7.21566 25.0685 8.44972C24.776 9.68381 24.7908 10.9998 25.111 12.2222C25.7661 14.6016 27.3817 16.3685 29.3554 16.8622C27.8754 18.6418 26.0272 19.8712 24.0195 20.41C13.4842 24.231 13.9483 33.4082 14.6718 37.1949V37.196C11.6897 37.85 8.8987 39.482 6.58553 41.9237C4.27236 44.3665 2.51829 47.5324 1.50331 51.0985C0.165414 56.2473 0.554801 61.8536 2.581 66.6377C3.04234 67.6019 3.65038 68.4427 4.371 69.1139C4.16985 69.3677 3.96964 69.6214 3.77956 69.8936C3.57011 70.1865 3.37543 70.4956 3.19736 70.8197C1.20713 74.1366 0.354615 78.3072 0.829862 82.4098L11.1103 140.195L73.7357 140.196L84.0161 82.4109V82.4098C84.4913 78.3072 83.6387 74.1366 81.6486 70.8197C81.4705 70.4956 81.2759 70.1865 81.0664 69.8936C80.427 68.979 79.7055 68.1578 78.9175 67.4473C81.5602 61.1905 81.4631 53.6797 78.6591 47.5324C78.0428 46.1969 77.3102 44.9501 76.4761 43.814C77.8038 39.8268 78.0871 35.4165 77.2853 31.2147C76.4834 27.0132 74.6381 23.2368 72.0141 20.4275C75.166 16.9133 81.0204 12.888 90.5185 15.0712C91.9293 15.416 93.3133 14.3353 93.6841 12.5984C93.7422 12.3135 93.7745 12.0217 93.7801 11.7276C93.7875 10.091 92.8565 8.68292 91.5684 8.38412L91.5677 8.38391ZM15.7124 133.579L6.06663 81.481V81.4821C5.79166 79.0681 6.30192 76.6163 7.48479 74.6773C8.66675 72.7374 10.4218 71.4711 12.3566 71.1608C14.2914 70.8517 16.2447 71.5241 17.7801 73.0292C19.3145 74.5332 20.3037 76.7441 20.5241 79.1673L25.4282 133.583L15.7124 133.579ZM39.7298 133.579H30.7521L25.993 80.7398C25.7605 78.2809 26.3888 75.8161 27.7175 73.979C28.9262 72.3459 30.5879 71.3494 32.3642 71.1971C34.1403 71.0438 35.8962 71.7438 37.2728 73.1555C38.6494 74.5672 39.5426 76.582 39.7695 78.7896C39.7529 79.1149 39.7298 133.581 39.7298 133.581L39.7298 133.579ZM54.0959 133.579H45.1394C45.1394 133.579 45.1164 79.113 45.0998 78.7882V78.7894C45.3267 76.5818 46.2199 74.5669 47.5965 73.1552C48.973 71.7436 50.729 71.0435 52.5051 71.1968C54.2803 71.3491 55.9431 72.3456 57.1517 73.9787C58.3789 75.6811 59.01 77.9266 58.9011 80.2137L54.0959 133.579ZM78.7771 81.4839L69.1314 133.582L59.4396 133.586L64.3196 79.1696C64.5402 76.7464 65.5284 74.5355 67.0636 73.0303C68.599 71.5252 70.5524 70.8528 72.4872 71.1619C74.422 71.4721 76.177 72.7385 77.3589 74.6784C78.5418 76.6183 79.0521 79.0692 78.7771 81.4844L78.7771 81.4839ZM73.3637 49.8529C73.5547 50.2116 73.7457 50.5691 73.9238 50.9451H73.9229C74.828 52.8862 75.3051 55.0938 75.3051 57.3416C75.3051 59.5883 74.8281 61.7959 73.9229 63.7381C73.7882 64.0449 73.6765 64.3666 73.5907 64.6988C71.3735 64.2663 69.1047 64.5708 67.0112 65.5823C64.9186 66.5949 63.0751 68.2777 61.668 70.462C61.4825 70.1598 61.2998 69.8565 61.0959 69.5705C58.6786 66.2662 55.2323 64.4368 51.6505 64.557C48.0696 64.6769 44.7065 66.7357 42.4337 70.197C40.1621 66.7357 36.799 64.6772 33.2169 64.557C29.636 64.437 26.1898 66.2663 23.7725 69.5705C23.5639 69.8623 23.3766 70.1725 23.1884 70.4805L23.1829 70.4712L23.1819 70.4724C21.4593 67.792 19.0889 65.8797 16.4252 65.0216C13.7615 64.1624 10.9464 64.4034 8.40155 65.7079C8.08229 64.9824 7.78058 64.2973 7.73813 64.1981C6.19079 60.9769 5.78112 57.0992 6.60508 53.4859C8.03524 48.5173 11.4705 44.8726 15.6253 43.9166C15.8569 43.8658 19.351 44.5647 22.2438 44.5647C26.2123 44.5428 30.1412 43.5705 33.8161 41.6987C35.1844 40.9721 35.834 39.0079 35.2757 37.286C34.7166 35.5629 33.1563 34.7187 31.7695 35.3876C28.0816 37.2987 24.0781 38.0657 20.1014 37.6228C20.1291 36.9988 20.0875 36.3726 19.9787 35.7624C19.4601 33.0336 19.474 29.1608 25.5333 26.9602C33.1611 24.2141 35.5083 19.0113 35.1946 15.4118V15.4129C35.082 14.0185 34.5616 12.7256 33.7349 11.7798C32.8547 10.8283 31.7447 10.2746 30.582 10.2101C32.8887 8.02678 36.6958 7.07177 41.6358 7.44663C47.2521 7.79495 52.4819 11.1282 56.0056 16.6064C51.2364 18.6628 47.4921 23.3537 45.857 29.3188C44.2211 35.2839 44.8772 41.8593 47.6341 47.1391C50.3911 52.4203 54.9419 55.8182 59.9686 56.3476C64.9962 56.8781 69.9381 54.4815 73.3641 49.8531L73.3637 49.8529ZM72.2722 35.9504C72.2704 37.1061 72.156 38.2582 71.9308 39.3792C71.0284 43.6962 68.4947 47.1909 65.1463 48.7374C61.7969 50.2829 58.0553 49.6866 55.124 47.1377C52.1927 44.59 50.4434 40.4126 50.4377 35.9501C50.4423 32.8141 51.3087 29.7751 52.8912 27.3415C54.4726 24.9068 56.6752 23.2253 59.1303 22.577C59.8629 22.3993 60.6075 22.3071 61.3549 22.3036C62.7297 22.3002 64.0926 22.63 65.3666 23.2759C67.4002 24.2805 69.1469 26.0266 70.3778 28.2861C71.6086 30.5455 72.2693 33.2155 72.272 35.9502L72.2722 35.9504Z" fill="#FF7A00"/>
<path d="M63.1121 27.6251C63.1121 29.4128 61.9523 30.8626 60.5221 30.8626C59.091 30.8626 57.9312 29.4128 57.9312 27.6251C57.9312 25.8362 59.091 24.3864 60.5221 24.3864C61.9523 24.3864 63.1121 25.8362 63.1121 27.6251Z" fill="#FF7A00"/>
<path d="M57.2687 33.8773C57.2687 35.2186 56.3996 36.3063 55.3265 36.3063C54.2534 36.3063 53.3833 35.2186 53.3833 33.8773C53.3833 32.5359 54.2534 31.4495 55.3265 31.4495C56.3996 31.4495 57.2687 32.5359 57.2687 33.8773Z" fill="#FF7A00"/>
</svg>
