<svg width="252" height="254" viewBox="0 0 252 254" fill="none" xmlns="http://www.w3.org/2000/svg">
<path d="M185.577 98.6854C184.752 97.4218 183.364 96.6707 181.863 96.6707L158.868 96.6693C156.02 92.3914 156.463 86.5381 160.208 82.7601C166.38 76.5424 166.38 66.4224 160.208 60.2062V60.202C158.737 58.7223 157.765 56.8841 157.312 54.8962H171.334C172.688 54.8962 173.788 53.7893 173.788 52.4226C173.788 51.0574 172.689 49.9491 171.334 49.9491H157.312C157.698 48.2605 158.494 46.7061 159.618 45.3633H171.334C172.688 45.3633 173.788 44.2564 173.788 42.8897C173.788 41.5245 172.69 40.4162 171.334 40.4162H163.197C164.263 38.2462 164.842 35.8488 164.842 33.36C164.842 30.1241 163.889 27.0336 162.12 24.4132C161.235 23.1016 159.411 22.8772 158.301 23.9996C157.453 24.8537 157.372 26.1809 158.051 27.179C159.276 28.989 159.937 31.1237 159.937 33.3587C159.937 35.9791 158.986 38.4328 157.326 40.4149H149.818C150.884 38.2449 151.463 35.8475 151.463 33.3587C151.463 30.1228 150.51 27.0323 148.741 24.4119C147.856 23.1003 146.032 22.8759 144.922 23.9983C144.074 24.8524 143.993 26.1796 144.672 27.1777C145.896 28.9877 146.558 31.1224 146.558 33.3574C146.558 36.294 145.42 39.0557 143.356 41.1365L143.353 41.1393C137.184 47.3598 137.184 57.4798 143.356 63.696V63.7003C145.419 65.7799 146.558 68.5416 146.558 71.4793C146.558 74.4159 145.42 77.1776 143.356 79.2583L143.353 79.2612C138.694 83.9597 137.561 90.8793 139.939 96.6647H132.097C129.249 92.3868 129.692 86.5335 133.437 82.7554C139.606 76.5378 139.606 66.4192 133.437 60.2016V60.1973C131.374 58.1177 130.238 55.356 130.238 52.4183C130.238 49.4789 131.374 46.7175 133.44 44.6349L133.436 44.6321C136.424 41.6164 138.072 37.6139 138.072 33.3588C138.072 30.1229 137.12 27.0324 135.351 24.412C134.466 23.1004 132.642 22.8759 131.531 23.9983C130.684 24.8525 130.603 26.1796 131.282 27.1778C132.506 28.9878 133.167 31.1224 133.167 33.3575C133.167 36.2941 132.03 39.0558 129.965 41.1365L129.968 41.1394C127.568 43.562 126.051 46.6273 125.539 49.9463H117.158C117.61 47.9556 118.585 46.1188 120.056 44.6365L120.053 44.6337C123.04 41.6209 124.689 37.6155 124.689 33.3604C124.689 30.1245 123.737 27.0339 121.968 24.4136C121.082 23.102 119.259 22.8775 118.148 23.9999C117.301 24.8541 117.219 26.1812 117.899 27.1794C119.123 28.9894 119.784 31.124 119.784 33.3591C119.784 35.9795 118.833 38.4332 117.173 40.4153H68.5581C67.2037 40.4153 66.1041 41.5221 66.1041 42.8888C66.1041 44.254 67.2023 45.3624 68.5581 45.3624H113.598C112.891 46.8038 112.406 48.3441 112.16 49.9482L68.5468 49.9524C67.1923 49.9524 66.0928 51.0593 66.0928 52.4259C66.0928 53.7912 67.1909 54.8995 68.5468 54.8995H112.145C112.657 58.2187 114.176 61.2838 116.576 63.7064C120.832 67.9969 120.832 74.9786 116.576 79.2692C111.914 83.9677 110.781 90.8873 113.162 96.6727H87.5046C86.0031 96.6727 84.6136 97.4266 83.7873 98.6902C82.9623 99.9538 82.8236 101.538 83.4147 102.924L88.2777 114.353L102.551 175.637C103.146 178.201 105.387 179.988 107.999 179.988H161.466C164.077 179.988 166.316 178.201 166.912 175.637L181.302 113.84L185.95 102.924C186.545 101.532 186.402 99.9488 185.577 98.6851L185.577 98.6854ZM158.185 101.615H181.168L177.348 110.59H154.366L158.185 101.615ZM146.822 82.7599C149.811 79.7442 151.461 75.7388 151.461 71.4823C151.461 67.2228 149.812 63.2175 146.821 60.2017C142.79 56.1356 142.626 49.6809 146.237 45.3618H153.747C152.681 47.5318 152.1 49.9292 152.1 52.4209C152.1 56.6803 153.748 60.6857 156.74 63.7014C160.995 67.9919 160.995 74.9737 156.74 79.2642C151.55 84.4951 150.742 92.4762 154.283 98.5822C154.103 98.8391 153.918 99.0904 153.793 99.3855L150.643 106.789L147.49 99.3841C147.294 98.9224 147.015 98.5229 146.692 98.1628C142.586 93.8611 142.617 87.0023 146.822 82.7598L146.822 82.7599ZM120.047 82.7599C126.215 76.5423 126.215 66.4223 120.047 60.206V60.2018C118.576 58.7222 117.604 56.884 117.149 54.896L125.533 54.8974C126.044 58.2167 127.564 61.2817 129.966 63.7044C134.221 67.9949 134.221 74.9766 129.966 79.2671H129.963C125.305 83.9657 124.169 90.8853 126.55 96.6706L118.706 96.6692C115.861 92.3928 116.303 86.5366 120.047 82.76V82.7599ZM143.096 101.615L146.918 110.59H92.0174L88.1979 101.615H143.096ZM148.187 175.039H107.999C107.678 175.039 107.401 174.819 107.329 174.505L93.5969 115.535H148.186L148.187 175.039ZM162.132 174.507C162.061 174.822 161.787 175.041 161.466 175.041H153.094V115.535H175.866L162.132 174.507Z" fill="#FF7A00"/>
</svg>
